{
	"asset":{
		"generator":"Khronos glTF Blender I/O v3.6.27",
		"version":"2.0"
	},
	"scene":0,
	"scenes":[
		{
			"name":"Scene",
			"nodes":[
				0
			]
		}
	],
	"nodes":[
		{
			"mesh":0,
			"name":"Duck",
			"translation":[
				0,
				-0.30000001192092896,
				0
			]
		}
	],
	"materials":[
		{
			"doubleSided":true,
			"name":"Yellow Beak",
			"pbrMetallicRoughness":{
				"baseColorFactor":[
					0.9450984001159668,
					0.2288307398557663,
					0.020851699635386467,
					1
				],
				"metallicFactor":0,
				"roughnessFactor":0.5
			}
		},
		{
			"doubleSided":true,
			"name":"White Coat",
			"pbrMetallicRoughness":{
				"baseColorFactor":[
					0.8980392217636108,
					0.8745098114013672,
					0.8235294222831726,
					1
				],
				"metallicFactor":0,
				"roughnessFactor":0.5
			}
		}
	],
	"meshes":[
		{
			"name":"Cube.004",
			"primitives":[
				{
					"attributes":{
						"POSITION":0,
						"NORMAL":1,
						"TEXCOORD_0":2
					},
					"indices":3,
					"material":0
				},
				{
					"attributes":{
						"POSITION":4,
						"NORMAL":5,
						"TEXCOORD_0":6
					},
					"indices":7,
					"material":1
				}
			]
		}
	],
	"accessors":[
		{
			"bufferView":0,
			"componentType":5126,
			"count":108,
			"max":[
				0.5,
				0.8000000715255737,
				0.25
			],
			"min":[
				-0.060000017285346985,
				-2.9802322387695312e-08,
				-0.2500000298023224
			],
			"type":"VEC3"
		},
		{
			"bufferView":1,
			"componentType":5126,
			"count":108,
			"type":"VEC3"
		},
		{
			"bufferView":2,
			"componentType":5126,
			"count":108,
			"type":"VEC2"
		},
		{
			"bufferView":3,
			"componentType":5123,
			"count":162,
			"type":"SCALAR"
		},
		{
			"bufferView":4,
			"componentType":5126,
			"count":56,
			"max":[
				0.30000001192092896,
				0.9000000357627869,
				0.25
			],
			"min":[
				-0.30000001192092896,
				0.19999998807907104,
				-0.25
			],
			"type":"VEC3"
		},
		{
			"bufferView":5,
			"componentType":5126,
			"count":56,
			"type":"VEC3"
		},
		{
			"bufferView":6,
			"componentType":5126,
			"count":56,
			"type":"VEC2"
		},
		{
			"bufferView":7,
			"componentType":5123,
			"count":102,
			"type":"SCALAR"
		}
	],
	"bufferViews":[
		{
			"buffer":0,
			"byteLength":1296,
			"byteOffset":0,
			"target":34962
		},
		{
			"buffer":0,
			"byteLength":1296,
			"byteOffset":1296,
			"target":34962
		},
		{
			"buffer":0,
			"byteLength":864,
			"byteOffset":2592,
			"target":34962
		},
		{
			"buffer":0,
			"byteLength":324,
			"byteOffset":3456,
			"target":34963
		},
		{
			"buffer":0,
			"byteLength":672,
			"byteOffset":3780,
			"target":34962
		},
		{
			"buffer":0,
			"byteLength":672,
			"byteOffset":4452,
			"target":34962
		},
		{
			"buffer":0,
			"byteLength":448,
			"byteOffset":5124,
			"target":34962
		},
		{
			"buffer":0,
			"byteLength":204,
			"byteOffset":5572,
			"target":34963
		}
	],
	"buffers":[
		{
			"byteLength":5776,
			"uri":"data:application/octet-stream;base64,"
		}
	]
}
