<?xml version="1.0" encoding="utf-8"?>
<!-- Generator: Adobe Illustrator 24.1.2, SVG Export Plug-In . SVG Version: 6.00 Build 0)  -->
<svg version="1.1" id="Layer_1" xmlns="http://www.w3.org/2000/svg" xmlns:xlink="http://www.w3.org/1999/xlink" x="0px" y="0px"
	 viewBox="0 0 385.79 390.09" style="enable-background:new 0 0 385.79 390.09;" xml:space="preserve">
<style type="text/css">
	.st0{fill:#BEDD43;}
	.st1{fill:#D3ED4C;}
	.st2{fill:#A4C93E;}
	.st3{fill:#CF7E28;}
	.st4{fill:#A16A1F;}
	.st5{fill:#BB7523;}
</style>
<path class="st0" d="M384.33,88.3c0.12,1.82,0.35,3.63,0.35,5.45c0.02,67.41-0.01,134.81,0.08,202.22c0,3.47-0.7,5.69-4.03,7.57
	c-20.51,11.54-40.88,23.32-61.27,35.08c-22.83,13.17-45.62,26.4-68.43,39.61c-5.87,3.4-11.71,6.86-17.6,10.24
	c-1.04,0.6-2.08,1.9-3.5,0.62c-0.74-2.03-1.21-4.09-1.2-6.3c0.15-18.23-0.22-36.46,0.22-54.69c-0.17-20.95-0.68-41.89,0.29-62.83
	c-1.08-17.27-0.38-34.57-0.44-51.85c-0.04-11.79-0.6-23.6,0.36-35.38c0.55-2.31,2.31-3.46,4.23-4.59
	c27.09-15.89,54.31-31.56,81.5-47.27c21.42-12.38,42.79-24.88,64.43-36.9C380.88,88.43,382.36,87.06,384.33,88.3z"/>
<path class="st1" d="M384.33,88.3c-14.95,8.58-29.89,17.17-44.84,25.75c-14.96,8.59-29.96,17.12-44.88,25.79
	c-19.35,11.23-38.63,22.58-57.97,33.83c-1.85,1.08-3.94,1.75-5.91,2.62c-2.56,1.64-4.45-0.25-6.36-1.37
	c-25.68-15.03-51.55-29.73-77.26-44.71c-21.54-12.55-43.21-24.89-64.79-37.4c-2.03-1.18-4.12-2.23-5.03-4.59
	c21.01-12.26,41.99-24.57,63.04-36.76c28.97-16.77,58.01-33.41,86.94-50.25c2.51-1.46,4.36-1.64,6.8-0.22
	c49.62,28.69,99.27,57.33,148.9,86C383.5,87.28,383.88,87.85,384.33,88.3z"/>
<path class="st2" d="M77.29,88.21c17.37,10.03,34.73,20.08,52.11,30.07c22.26,12.8,44.57,25.52,66.82,38.34
	c10.05,5.79,20.04,11.7,30.02,17.6c1.43,0.85,2.77,1.84,4.48,2.07c-0.01,29.66-0.01,59.32-0.02,88.99c-0.4,0.3-0.85,0.49-1.35,0.56
	c-8.99-3.96-17.31-9.19-25.78-14.1c-23.19-13.43-46.39-26.83-69.58-40.25c-17.15-9.92-34.45-19.58-51.46-29.73
	c-2.09-1.25-4.6-2.1-5.67-4.64c0.04-27.48,0.08-54.95,0.14-82.43C77.01,92.52,77.19,90.36,77.29,88.21z"/>
<path class="st3" d="M76.86,177.1c9.38,5.28,18.8,10.5,28.14,15.84c22.44,12.85,44.88,25.7,67.26,38.66
	c19.21,11.13,38.34,22.41,57.51,33.62c0.4,2.77-1.78,3.78-3.57,4.81c-22.47,12.86-44.71,26.13-67.22,38.93
	c-1.92,1.09-3.92,1.81-6.18,1.44c-9.74-3.95-18.39-9.94-27.47-15.11c-23.96-13.65-47.87-27.4-71.63-41.4
	c-16.6-9.78-33.62-18.83-50.02-28.95c-1.28-0.79-2.61-1.47-3.39-2.84c3.66-4.48,9.15-6.23,13.9-9.01
	C34.99,200.95,55.96,189.08,76.86,177.1z"/>
<path class="st4" d="M0.3,222.11c6.97,1.65,12.36,6.38,18.38,9.77c25.16,14.16,50.05,28.81,75.05,43.26
	c19.68,11.37,39.37,22.71,59.06,34.06c2.64,1.37,2.97,3.86,2.98,6.41c0.09,16.65,0.06,33.31,0.03,49.96c0,2.23-0.42,4.31-1.97,6.02
	c-13.93-6.97-27.1-15.3-40.61-23.03c-25.08-14.35-50.07-28.85-75.1-43.29c-11.8-6.8-23.61-13.6-35.42-20.38
	c-1.71-0.98-2.71-2.18-2.7-4.34C0.15,261.06,0.21,241.59,0.3,222.11z"/>
<path class="st5" d="M153.83,371.59c0-18.71-0.01-37.42-0.01-56.13c0-2.15,0.2-4.32-1.03-6.27c1.48-0.06,2.92-0.05,4.32-0.87
	c22.95-13.34,45.93-26.62,68.87-39.98c1.38-0.81,3.06-1.44,3.78-3.12c0.31-0.02,0.63-0.01,0.94,0.04c0,20.94,0,41.88,0,62.81
	c-1.03,2.59-3.63,3.29-5.69,4.58c-13.63,8.52-27.79,16.15-41.6,24.39c-2.07,1.23-4.22,1.73-6.52,1.92
	C169.04,362.87,162.03,368.31,153.83,371.59z"/>
<path class="st2" d="M176.9,358.95c15.99-9.37,31.96-18.76,47.97-28.09c1.86-1.08,3.89-1.87,5.84-2.79
	c0.02,18.91,0.05,37.82,0.05,56.73c0,1.47,0.28,3.01-0.82,4.28c-16.51-9.43-33.02-18.87-49.53-28.29
	C179.26,360.14,178.07,359.57,176.9,358.95z"/>
</svg>
