{
	"asset":{
		"generator":"Khronos glTF Blender I/O v3.6.27",
		"version":"2.0"
	},
	"scene":0,
	"scenes":[
		{
			"name":"Scene",
			"nodes":[
				0
			]
		}
	],
	"nodes":[
		{
			"mesh":0,
			"name":"Duckie",
			"rotation":[
				0,
				-0.7071068286895752,
				0,
				0.7071068286895752
			],
			"translation":[
				-0.10000000894069672,
				0.20000001788139343,
				0
			]
		}
	],
	"materials":[
		{
			"doubleSided":true,
			"name":"Yellow Coat",
			"pbrMetallicRoughness":{
				"baseColorFactor":[
					0.9803921580314636,
					0.9490196108818054,
					0.07450980693101883,
					1
				],
				"metallicFactor":0,
				"roughnessFactor":0.5
			}
		},
		{
			"doubleSided":true,
			"name":"Yellow Beak",
			"pbrMetallicRoughness":{
				"baseColorFactor":[
					0.9450984001159668,
					0.2288307398557663,
					0.020851699635386467,
					1
				],
				"metallicFactor":0,
				"roughnessFactor":0.5
			}
		}
	],
	"meshes":[
		{
			"name":"Cube.002",
			"primitives":[
				{
					"attributes":{
						"POSITION":0,
						"NORMAL":1,
						"TEXCOORD_0":2
					},
					"indices":3,
					"material":0
				},
				{
					"attributes":{
						"POSITION":4,
						"NORMAL":5,
						"TEXCOORD_0":6
					},
					"indices":7,
					"material":1
				}
			]
		}
	],
	"accessors":[
		{
			"bufferView":0,
			"componentType":5126,
			"count":32,
			"max":[
				0.09999999403953552,
				0.24000003933906555,
				0.10000000894069672
			],
			"min":[
				-0.09999997168779373,
				2.9802322387695312e-08,
				-0.10000000894069672
			],
			"type":"VEC3"
		},
		{
			"bufferView":1,
			"componentType":5126,
			"count":32,
			"type":"VEC3"
		},
		{
			"bufferView":2,
			"componentType":5126,
			"count":32,
			"type":"VEC2"
		},
		{
			"bufferView":3,
			"componentType":5123,
			"count":54,
			"type":"SCALAR"
		},
		{
			"bufferView":4,
			"componentType":5126,
			"count":20,
			"max":[
				0.20000001788139343,
				0.14000007510185242,
				0.10000000894069672
			],
			"min":[
				0.09999999403953552,
				0.0700000524520874,
				-0.10000000894069672
			],
			"type":"VEC3"
		},
		{
			"bufferView":5,
			"componentType":5126,
			"count":20,
			"type":"VEC3"
		},
		{
			"bufferView":6,
			"componentType":5126,
			"count":20,
			"type":"VEC2"
		},
		{
			"bufferView":7,
			"componentType":5123,
			"count":30,
			"type":"SCALAR"
		}
	],
	"bufferViews":[
		{
			"buffer":0,
			"byteLength":384,
			"byteOffset":0,
			"target":34962
		},
		{
			"buffer":0,
			"byteLength":384,
			"byteOffset":384,
			"target":34962
		},
		{
			"buffer":0,
			"byteLength":256,
			"byteOffset":768,
			"target":34962
		},
		{
			"buffer":0,
			"byteLength":108,
			"byteOffset":1024,
			"target":34963
		},
		{
			"buffer":0,
			"byteLength":240,
			"byteOffset":1132,
			"target":34962
		},
		{
			"buffer":0,
			"byteLength":240,
			"byteOffset":1372,
			"target":34962
		},
		{
			"buffer":0,
			"byteLength":160,
			"byteOffset":1612,
			"target":34962
		},
		{
			"buffer":0,
			"byteLength":60,
			"byteOffset":1772,
			"target":34963
		}
	],
	"buffers":[
		{
			"byteLength":1832,
			"uri":"data:application/octet-stream;base64,"
		}
	]
}
